<?xml version="1.0" encoding="UTF-8" standalone="no"?>
<svg
   xmlns:dc="http://purl.org/dc/elements/1.1/"
   xmlns:cc="http://creativecommons.org/ns#"
   xmlns:rdf="http://www.w3.org/1999/02/22-rdf-syntax-ns#"
   xmlns:svg="http://www.w3.org/2000/svg"
   xmlns="http://www.w3.org/2000/svg"
   xmlns:sodipodi="http://sodipodi.sourceforge.net/DTD/sodipodi-0.dtd"
   xmlns:inkscape="http://www.inkscape.org/namespaces/inkscape"
   version="1.1"
   id="Calque_1"
   x="0px"
   y="0px"
   width="74.803329"
   height="47.964848"
   viewBox="0 0 81.285786 51.802036"
   enable-background="new 0 0 108.666 79"
   xml:space="preserve"
   inkscape:version="0.48.2 r9819"
   sodipodi:docname="noun_project_2554.svg"><metadata
     id="metadata19"><rdf:RDF><cc:Work
         rdf:about=""><dc:format>image/svg+xml</dc:format><dc:type
           rdf:resource="http://purl.org/dc/dcmitype/StillImage" /><dc:title></dc:title></cc:Work></rdf:RDF></metadata><defs
     id="defs17" /><sodipodi:namedview
     pagecolor="#ffffff"
     bordercolor="#666666"
     borderopacity="1"
     objecttolerance="10"
     gridtolerance="10"
     guidetolerance="10"
     inkscape:pageopacity="0"
     inkscape:pageshadow="2"
     inkscape:window-width="640"
     inkscape:window-height="480"
     id="namedview15"
     showgrid="false"
     fit-margin-top="0"
     fit-margin-left="0"
     fit-margin-right="0"
     fit-margin-bottom="0"
     inkscape:zoom="3.2263291"
     inkscape:cx="37.599132"
     inkscape:cy="25.536966"
     inkscape:window-x="290"
     inkscape:window-y="76"
     inkscape:window-maximized="0"
     inkscape:current-layer="Calque_1" /><g
     id="g11"
     transform="translate(-13.475527,-15.372103)"><path
       id="path13"
       d="m 76.492,67.25 c 0,-3.103 -3.504,-16.225 -3.504,-16.225 0,-1.917 -2.521,-4.107 -7.494,-5.384 -2.58,-0.662 -4.744,-2.145 -4.744,-2.145 -0.319,-0.181 -0.27,-1.857 -0.27,-1.857 l -1.602,-0.241 c 0,-0.137 -0.136,-2.145 -0.136,-2.145 1.916,-0.639 1.718,-4.41 1.718,-4.41 1.217,0.67 2.008,-2.311 2.008,-2.311 1.439,-4.145 -0.716,-3.895 -0.716,-3.895 0.685,-3.102 0,-7.635 0,-7.635 -0.958,-8.395 -15.384,-6.116 -13.673,-3.373 -4.215,-0.776 -3.254,8.757 -3.254,8.757 l 0.914,2.464 c -1.796,1.155 -0.548,2.555 -0.487,4.167 0.088,2.377 1.551,1.885 1.551,1.885 0.091,3.924 2.037,4.44 2.037,4.44 0.366,2.464 0.138,2.045 0.138,2.045 l -1.734,0.208 c 0.077,0.623 -0.136,1.671 -0.136,1.671 -2.043,0.902 -2.478,1.432 -4.503,2.312 -3.914,1.704 -8.168,3.92 -8.924,6.904 -0.756,2.984 -3,14.766 -3,14.766 H 76.492 z M 31.682,52.484 v -0.106 l 0.011,-0.104 c 1.12,-4.836 6.947,-7.147 10.128,-8.533 0.005,-0.002 -0.005,0.002 0,0 -1.931,-0.882 -2.95,-1.541 -3.427,-1.649 -0.195,-0.391 -0.614,-3.345 -0.614,-3.345 0,0 2.321,-2.051 2.842,-5.978 0,0 1.143,0.632 1.214,-1.758 0.053,-1.841 0.371,-2.56 -0.882,-3.098 0,0 0.09,-1.274 0.13,-2.405 0.062,-1.676 0.371,-4.028 -2.529,-5.92 -0.412,-0.269 -2.539,-1.452 -2.553,-1.446 -0.758,-0.46 -1.722,-0.753 -1.722,-0.753 l 0.031,0.691 c -0.052,-0.051 -0.104,-0.105 -0.152,-0.152 -0.191,-0.197 -0.299,-0.959 -0.28,-1.261 0.037,-0.536 0.037,-0.536 0.037,-0.536 -1.374,1.025 -2.321,2.35 -2.321,2.35 L 31.718,17.2 c 0,0 -0.255,0.393 -3.398,2.355 -3.084,1.925 -2.573,4.766 -2.488,6.448 0.057,1.13 0.169,1.91 0.169,1.91 -1.252,0.538 -0.596,1.306 -0.564,3.147 0.04,2.547 1.324,2.098 1.324,2.098 0.591,3.469 2.414,5.588 2.414,5.588 0,0 -0.516,2.972 -0.714,3.349 -0.568,0.127 -1.88,1.032 -4.633,2.178 -4.057,1.688 -2.783,0.709 -6.085,2.359 -5.219,2.61 -4.184,13.493 -4.184,13.493 H 30 l 1.682,-7.641 z M 67.484,35.67 c 0,0 -0.5,1.552 -0.578,1.759 -0.078,0.207 -0.558,0.851 -0.454,0.851 0.103,0 1.162,0.491 1.162,0.491 l 4.114,1.278 -0.059,1.938 c -0.361,0.053 -1.782,0.994 -1.989,1.459 -0.135,0.304 -0.436,0.846 -0.725,1.222 3.747,1.511 5.94,3.724 6.029,6.2 0.061,0.442 2.335,8.557 2.465,10.383 h 17.312 c 0.015,-0.075 -0.521,-10.573 -0.526,-10.652 0,0 -0.995,-2.528 -2.57,-2.785 -1.576,-0.259 -3.599,-0.808 -4.445,-1.447 -0.495,-0.376 -2.106,-1.027 -2.853,-1.299 -0.349,-0.125 -0.944,-1.156 -1.15,-1.621 -0.206,-0.465 -1.628,-1.406 -1.99,-1.459 l -0.058,-1.938 4.113,-1.278 c 0,0 1.061,-0.491 1.163,-0.491 0.104,0 -0.491,-0.78 -0.568,-0.988 -0.078,-0.207 -0.465,-1.621 -0.465,-1.621 0,0 1.389,1.698 2.093,2.015 0,0 -1.383,-2.596 -1.795,-4.042 -0.414,-1.447 -0.685,-3.707 -0.685,-3.913 0,-0.208 -0.853,-6.278 -1.318,-7.285 -0.465,-1.009 -1.096,-2.377 -2.176,-3.049 -1.08,-0.672 -2.681,-1.628 -4.98,-1.756 -0.034,-0.002 -0.068,-0.002 -0.103,-0.005 -0.034,0.003 -0.068,0.003 -0.104,0.005 -2.298,0.128 -3.899,1.084 -4.979,1.756 -1.078,0.672 -1.71,2.04 -2.176,3.049 -0.465,1.007 -1.317,7.077 -1.317,7.285 0,0.206 -0.241,2.558 -0.654,4.004 -0.413,1.447 -1.825,3.951 -1.825,3.951 0.704,-0.319 2.091,-2.017 2.091,-2.017 z" /></g></svg>