<?xml version="1.0" encoding="UTF-8" standalone="no"?>
<svg
   xmlns:dc="http://purl.org/dc/elements/1.1/"
   xmlns:cc="http://creativecommons.org/ns#"
   xmlns:rdf="http://www.w3.org/1999/02/22-rdf-syntax-ns#"
   xmlns:svg="http://www.w3.org/2000/svg"
   xmlns="http://www.w3.org/2000/svg"
   xmlns:sodipodi="http://sodipodi.sourceforge.net/DTD/sodipodi-0.dtd"
   xmlns:inkscape="http://www.inkscape.org/namespaces/inkscape"
   version="1.1"
   id="Layer_1"
   x="0px"
   y="0px"
   width="99.992996"
   height="100"
   viewBox="0 0 99.992999 100"
   enable-background="new 0 0 99.992 100"
   xml:space="preserve"
   inkscape:version="0.48.2 r9819"
   sodipodi:docname="projects.svg"><metadata
     id="metadata23"><rdf:RDF><cc:Work
         rdf:about=""><dc:format>image/svg+xml</dc:format><dc:type
           rdf:resource="http://purl.org/dc/dcmitype/StillImage" /><dc:title /></cc:Work></rdf:RDF></metadata><defs
     id="defs21" /><sodipodi:namedview
     pagecolor="#ffffff"
     bordercolor="#666666"
     borderopacity="1"
     objecttolerance="10"
     gridtolerance="10"
     guidetolerance="10"
     inkscape:pageopacity="0"
     inkscape:pageshadow="2"
     inkscape:window-width="843"
     inkscape:window-height="519"
     id="namedview19"
     showgrid="false"
     inkscape:zoom="2.36"
     inkscape:cx="49.995998"
     inkscape:cy="49.999998"
     inkscape:window-x="240"
     inkscape:window-y="120"
     inkscape:window-maximized="0"
     inkscape:current-layer="Layer_1"
     fit-margin-top="0"
     fit-margin-left="0"
     fit-margin-right="0"
     fit-margin-bottom="0" /><path
     id="projects"
     d="m 49.996,12.499 49.996,24.274 0,-12.423 L 49.996,0 0,24.35 0,36.773 z m 35.194,35.167 -0.007,0.015 c -0.561,-0.281 -1.185,-0.454 -1.856,-0.454 -1.865,0 -3.425,1.234 -3.956,2.924 l -0.019,-0.008 -3.503,9.583 H 63.884 c -1.534,0 -2.777,1.244 -2.777,2.777 0,1.534 1.244,2.778 2.777,2.778 h 13.888 c 1.087,0 2.018,-0.631 2.475,-1.541 l 0.01,0.005 4.265,-6.587 c 4.688,4.006 6.456,10.466 6.962,16.455 H 79.16 c -2.301,0 -4.166,1.865 -4.166,4.166 v 18.055 c 0,2.301 1.865,4.166 4.166,4.166 2.302,0 4.167,-1.865 4.167,-4.166 V 81.946 h 12.5 c 2.301,0 4.166,-1.865 4.166,-4.167 C 99.992,63.134 94.735,52.438 85.19,47.666 z m -6.723997,-3.216999 c 0,3.45178 -2.79822,6.25 -6.25,6.25 -3.451779,0 -6.25,-2.79822 -6.25,-6.25 0,-3.451779 2.798221,-6.25 6.25,-6.25 3.45178,0 6.25,2.798221 6.25,6.25 z M 66.662,68.058 H 59.33 l -2.461,-7.383 -0.016,0.005 c -0.184,-0.55 -0.688,-0.955 -1.301,-0.955 -0.768,0 -1.389,0.621 -1.389,1.389 0,0.155 0.041,0.296 0.087,0.434 l -0.017,0.005 3.094,9.282 h 9.334 c 0.768,0 1.389,-0.622 1.389,-1.389 0,-0.767 -0.621,-1.388 -1.388,-1.388 z M 36.108,59.726 H 24.144 l -3.503,-9.583 -0.019,0.008 c -0.531,-1.69 -2.091,-2.924 -3.956,-2.924 -0.671,0 -1.295,0.173 -1.856,0.454 L 14.803,47.666 C 5.257,52.438 0,63.134 0,77.779 c 0,2.302 1.865,4.167 4.167,4.167 h 12.499 v 13.888 c 0,2.301 1.865,4.166 4.167,4.166 2.301,0 4.166,-1.865 4.166,-4.166 V 77.779 c 0,-2.301 -1.865,-4.166 -4.166,-4.166 H 8.509 c 0.506,-5.989 2.274,-12.449 6.962,-16.455 l 4.265,6.587 0.01,-0.005 c 0.457,0.91 1.388,1.541 2.475,1.541 h 13.888 c 1.534,0 2.777,-1.244 2.777,-2.778 0,-1.534 -1.244,-2.777 -2.778,-2.777 z M 34.025999,44.449001 c 0,3.45178 -2.79822,6.25 -6.25,6.25 -3.45178,0 -6.25,-2.79822 -6.25,-6.25 0,-3.451779 2.79822,-6.25 6.25,-6.25 3.45178,0 6.25,2.798221 6.25,6.25 z M 45.83,61.114 c 0,-0.768 -0.621,-1.389 -1.389,-1.389 -0.614,0 -1.118,0.404 -1.301,0.955 l -0.016,-0.005 -2.461,7.383 h -7.332 c -0.768,0 -1.389,0.621 -1.389,1.389 0,0.768 0.621,1.389 1.389,1.389 h 9.334 l 3.094,-9.282 -0.017,-0.005 c 0.047,-0.139 0.088,-0.28 0.088,-0.435 z m 16.665,20.832 5.555,0 0,-8.333 -36.108,0 0,8.333 5.555,0 z"
     inkscape:connector-curvature="0" /></svg>