<?xml version="1.0" encoding="UTF-8" standalone="no"?>
<svg
   xmlns:dc="http://purl.org/dc/elements/1.1/"
   xmlns:cc="http://creativecommons.org/ns#"
   xmlns:rdf="http://www.w3.org/1999/02/22-rdf-syntax-ns#"
   xmlns:svg="http://www.w3.org/2000/svg"
   xmlns="http://www.w3.org/2000/svg"
   xmlns:sodipodi="http://sodipodi.sourceforge.net/DTD/sodipodi-0.dtd"
   xmlns:inkscape="http://www.inkscape.org/namespaces/inkscape"
   version="1.1"
   id="Layer_1"
   x="0px"
   y="0px"
   width="99.999992"
   height="99.998993"
   viewBox="326.5 -0.499 99.999993 99.998992"
   enable-background="new 326.5 -0.499 100 99.999"
   xml:space="preserve"
   inkscape:version="0.48.2 r9819"
   sodipodi:docname="skill_share.svg"><metadata
     id="metadata15"><rdf:RDF><cc:Work
         rdf:about=""><dc:format>image/svg+xml</dc:format><dc:type
           rdf:resource="http://purl.org/dc/dcmitype/StillImage" /><dc:title></dc:title></cc:Work></rdf:RDF></metadata><defs
     id="defs13" /><sodipodi:namedview
     pagecolor="#ffffff"
     bordercolor="#666666"
     borderopacity="1"
     objecttolerance="10000"
     gridtolerance="10"
     guidetolerance="10"
     inkscape:pageopacity="0"
     inkscape:pageshadow="2"
     inkscape:window-width="1099"
     inkscape:window-height="715"
     id="namedview11"
     showgrid="false"
     inkscape:zoom="0.59"
     inkscape:cx="208.47458"
     inkscape:cy="19.428573"
     inkscape:window-x="62"
     inkscape:window-y="0"
     inkscape:window-maximized="0"
     inkscape:current-layer="Layer_1"
     fit-margin-top="0"
     fit-margin-left="0"
     fit-margin-right="0"
     fit-margin-bottom="0"
     showguides="true"
     inkscape:guide-bbox="true"
     inkscape:showpageshadow="true"
     showborder="true"
     borderlayer="false" /><path
     id="skills_share"
     d="m 54.276998,55.055997 c 0,0.768 0.622,1.389 1.39,1.389 h 4.166 v 5.555 c 0,4.601 3.731,8.333 8.334,8.333 h 2.777 v 6.944 h 22.223 v -15.277 -2.807 c 5.05099,-3.802 8.332992,-9.828999 8.332992,-16.638 0,-11.505 -9.326992,-20.833 -20.832992,-20.833 -11.506,0 -20.834,9.328 -20.834,20.833 l -5.436,11.939 h 0.002 c -0.075,0.172 -0.122,0.36 -0.122,0.562 z m 9.312,-18.244 c 0,-2.284 1.382,-4.245 3.359,-5.089 0.536,-2.438 2.697,-4.262 5.296,-4.262 0.138,0 0.263,0.011 0.392,0.018 0.98,-1.431 2.626,-2.369 4.491,-2.369 0.924,0 1.79,0.229 2.551,0.639 0.858,-0.571 1.887,-0.902 2.992,-0.902 1.42,0 2.714,0.553 3.684,1.453 0.406,-0.098 0.826,-0.156 1.266,-0.156 2.194,0 4.092,1.321 4.939,3.213 2.228,0.674 3.84899,2.741 3.84899,5.187 0,0.491 -0.065,0.964 -0.187,1.415 0.695,0.913 1.112,2.051 1.112,3.288 0,1.438 -0.562,2.742 -1.479,3.713 -0.156,2.052001 -1.45499,3.783001 -3.26799,4.563001 v 0.02 c -2.212,1.287 -3.534,3.485999 -3.936,6.123999 h -2.046 v -6.117999 c 0.014,-1.908 0.613,-3.129 1.87,-3.883001 0.46,-0.265 0.878,-0.567 1.234,-0.903 0.934,0.336 1.76,0.994 2.284,1.929001 0.11,0.184 0.306,0.287 0.499,0.287 0.094,0 0.191,-0.023 0.279,-0.074 0.281,-0.153 0.382,-0.503 0.223,-0.777 h -0.004 c -0.589,-1.047001 -1.483,-1.820001 -2.5,-2.280001 0.522,-0.8 0.812,-1.755 0.798,-2.901 0,-0.005 0.008,-0.012 0.008,-0.021 0,-0.517 -0.077,-1.021 -0.215,-1.493 1.194,-0.229 2.247,-0.834 3.021,-1.688 0.215,-0.236 0.199,-0.599 -0.037,-0.81 -0.237,-0.213 -0.594,-0.194 -0.805,0.037 -0.674,0.732 -1.584,1.236 -2.618,1.374 -0.833,-1.541 -2.38,-2.635 -4.192,-2.835 0.12,-0.978 0.561,-1.849 1.225,-2.512 0.218,-0.224 0.218,-0.586 0,-0.807 -0.223,-0.224 -0.59,-0.224 -0.814,0 -0.848,0.849 -1.416,1.984 -1.557,3.249 -2.13,-0.27 -3.771,-2.075 -3.773,-4.276 0,-0.312 -0.261,-0.574 -0.567,-0.574 -0.323,0 -0.577,0.262 -0.577,0.574 0,0.372 0.036,0.726 0.108,1.074 -0.808,0.698 -1.812,1.052 -2.817,1.052 -0.498,0 -0.995,-0.089 -1.465,-0.26 0,0 -0.008,0 -0.014,-0.003 -0.579,-0.209 -1.109,-0.541 -1.569,-1.001 -0.221,-0.222 -0.586,-0.222 -0.81,0 -0.224,0.221 -0.224,0.583 0,0.807 0.473,0.469 1.003,0.834 1.568,1.096 -0.113,1.424 -0.94,2.648 -2.099,3.338 -0.67,-1.018 -1.677,-1.822 -2.912,-2.214 -0.308,-0.098 -0.628,0.071 -0.726,0.372 -0.084,0.3 0.069,0.622 0.374,0.715 0.917,0.292 1.655,0.856 2.187,1.578 -0.357,0.095 -0.723,0.146 -1.112,0.146 0,0 0,0 -0.005,0 h -0.063 c -1.468,0 -2.817,0.586 -3.8,1.542 -0.231,0.22 -0.237,0.582 -0.009,0.807 0.109,0.115 0.259,0.172 0.413,0.172 0.131,0 0.274,-0.053 0.386,-0.162 0.778,-0.758 1.84,-1.216 3.01,-1.216 h 0.061 10e-4 0.006 c 2.752,0 5.039,-2.05 5.396,-4.706 0.393,0.084 0.783,0.13 1.181,0.13 1.117,0 2.243,-0.347 3.192,-1.034 0.348,0.792 0.896,1.484 1.56,2.021 -0.678,0.835 -1.076,1.829 -1.183,2.843 -0.284,-0.046 -0.586,-0.07 -0.887,-0.07 -0.862,0 -1.739,0.205 -2.553,0.64 -0.279,0.148 -0.385,0.495 -0.238,0.776 0.104,0.19 0.305,0.3 0.51,0.3 0.095,0 0.179,-0.021 0.262,-0.069 0.655,-0.343 1.342,-0.506 2.02,-0.506 0.304,0 0.603,0.033 0.887,0.094 0.125,1.158 0.626,2.291 1.487,3.191 0.113,0.118 0.263,0.176 0.409,0.176 0.141,0 0.285,-0.051 0.398,-0.157 0.233,-0.221 0.24,-0.579 0.018,-0.807 h -0.004 c -0.765,-0.809 -1.169,-1.836 -1.196,-2.874 0,-0.016 0.004,-0.027 0,-0.045 0,-0.021 0,-0.042 0,-0.063 0,-1.009 0.349,-2.006 1.039,-2.807 0.728,0.362 1.555,0.573 2.431,0.573 0,0 0.003,0.001 0.01,0.001 0,0 0.004,0 0.009,0 2.374,0.008 4.295,1.926 4.303,4.298 -0.45,-0.119 -0.913,-0.18 -1.389,-0.18 -0.681,0 -1.37,0.125 -2.035,0.399 -0.295,0.121 -0.437,0.451 -0.317,0.743 0.122,0.292 0.451,0.434 0.742,0.314 0.533,-0.213 1.076,-0.316 1.61,-0.316 0.431,0 0.858,0.065 1.26,0.19 -0.14,0.64 -0.414,1.153 -0.84,1.608 -0.032,0.03 -0.063,0.062 -0.088,0.101 -0.327,0.32 -0.718,0.616 -1.2,0.909 -1.653,0.966 -2.447,2.718001 -2.431,4.865001 v 6.118999 h -1.95 v -5.816999 c 0,-2.138 -1.34,-4.163001 -3.027,-4.884001 -0.805,-0.312 -1.645,-0.835 -2.256,-1.521 -0.872,0.593 -1.919,0.941 -3.044,0.941 -1.128,0 -2.174,-0.343 -3.042,-0.932 -0.861,0.567 -1.901,0.899 -3.017,0.899 -3.062,0 -5.537,-2.48 -5.537,-5.539 z m -1.672,8.868001 c 0,-1.343 1.088,-2.430001 2.431,-2.430001 1.343,0 2.43,1.087001 2.43,2.430001 0,1.343 -1.087,2.431 -2.43,2.431 -1.343,0 -2.431,-1.088 -2.431,-2.431 z m -13.316,8.813999 h 0.002 l -5.436,-11.939 c 0,-11.505 -9.328,-20.833 -20.834,-20.833 -11.506,0 -20.833,9.328 -20.833,20.833 0,6.809001 3.282,12.836 8.333,16.638 v 2.807 15.277 h 22.223 v -6.944 h 2.777 c 4.603,0 8.334,-3.732 8.334,-8.333 v -5.556 h 4.166 c 0.768,0 1.39,-0.621 1.39,-1.389 0,-0.201 -0.047,-0.389 -0.122,-0.561 z m -14.725,-12.143 c -1.115,0 -2.155,-0.333 -3.017,-0.899 -0.868,0.589 -1.914,0.932 -3.042,0.932 -1.125,0 -2.172,-0.349 -3.044,-0.941 -0.611,0.685 -1.451,1.208 -2.256,1.521 -1.688,0.721 -3.027,2.747001 -3.027,4.884001 v 5.816999 h -1.95 v -6.118999 c 0.017,-2.147 -0.777,-3.899001 -2.431,-4.865001 -0.482,-0.293 -0.873,-0.589 -1.2,-0.909 -0.024,-0.038 -0.056,-0.071 -0.088,-0.101 -0.426,-0.456 -0.7,-0.968 -0.84,-1.608 0.401,-0.125 0.829,-0.19 1.26,-0.19 0.534,0 1.077,0.103 1.61,0.316 0.291,0.12 0.62,-0.023 0.742,-0.314 0.119,-0.292 -0.022,-0.623 -0.317,-0.743 -0.665,-0.274 -1.354,-0.399 -2.035,-0.399 -0.476,0 -0.938,0.061 -1.389,0.18 0.008,-2.372 1.929,-4.29 4.303,-4.298 0.005,0 0.009,0 0.009,0 0.007,0 0.01,-0.001 0.01,-0.001 0.876,0 1.703,-0.21 2.431,-0.573 0.69,0.8 1.039,1.797 1.039,2.807 0,0.021 0,0.042 0,0.063 -0.004,0.018 0,0.029 0,0.045 -0.027,1.038 -0.432,2.065 -1.196,2.874 h -0.004 c -0.223,0.228 -0.216,0.586 0.018,0.807 0.113,0.106 0.258,0.157 0.398,0.157 0.146,0 0.296,-0.058 0.409,-0.176 0.861,-0.9 1.362,-2.033 1.487,-3.191 0.284,-0.061 0.583,-0.094 0.887,-0.094 0.678,0 1.364,0.163 2.02,0.506 0.083,0.049 0.167,0.069 0.262,0.069 0.205,0 0.405,-0.11 0.51,-0.3 0.146,-0.281 0.041,-0.628 -0.238,-0.776 -0.813,-0.435 -1.69,-0.64 -2.553,-0.64 -0.301,0 -0.603,0.024 -0.887,0.07 -0.106,-1.014 -0.505,-2.007 -1.183,-2.843 0.664,-0.537 1.212,-1.229 1.56,-2.021 0.949,0.687 2.075,1.034 3.192,1.034 0.397,0 0.788,-0.046 1.181,-0.13 0.357,2.656 2.645,4.706 5.396,4.706 h 0.006 0.001 0.061 c 1.17,0 2.231,0.458 3.01,1.216 0.111,0.108 0.255,0.162 0.386,0.162 0.154,0 0.304,-0.057 0.413,-0.172 0.229,-0.225 0.223,-0.587 -0.009,-0.807 -0.982,-0.956 -2.332,-1.542 -3.8,-1.542 h -0.063 c -0.005,0 -0.005,0 -0.005,0 -0.39,0 -0.755,-0.052 -1.112,-0.146 0.531,-0.722 1.27,-1.286 2.187,-1.578 0.305,-0.093 0.458,-0.415 0.374,-0.715 -0.098,-0.301 -0.418,-0.469 -0.726,-0.372 -1.235,0.392 -2.242,1.196 -2.912,2.214 -1.158,-0.689 -1.985,-1.914 -2.099,-3.338 0.565,-0.262 1.096,-0.627 1.568,-1.096 0.224,-0.224 0.224,-0.586 0,-0.807 -0.224,-0.222 -0.589,-0.222 -0.81,0 -0.46,0.46 -0.99,0.792 -1.569,1.001 -0.006,0.003 -0.014,0.003 -0.014,0.003 -0.47,0.171 -0.967,0.26 -1.465,0.26 -1.005,0 -2.01,-0.354 -2.817,-1.052 0.072,-0.349 0.108,-0.703 0.108,-1.074 0,-0.312 -0.254,-0.574 -0.577,-0.574 -0.307,0 -0.567,0.262 -0.567,0.574 -0.003,2.201 -1.644,4.006 -3.773,4.276 -0.141,-1.264 -0.709,-2.399 -1.557,-3.249 -0.225,-0.224 -0.592,-0.224 -0.814,0 -0.218,0.221 -0.218,0.583 0,0.807 0.664,0.663 1.104,1.534 1.225,2.512 -1.812,0.2 -3.359,1.294 -4.192,2.835 -1.034,-0.138 -1.944,-0.642 -2.618,-1.374 -0.211,-0.23 -0.567,-0.25 -0.805,-0.037 -0.236,0.21 -0.252,0.574 -0.037,0.81 0.773,0.854 1.826,1.458 3.021,1.688 -0.138,0.472 -0.215,0.977 -0.215,1.493 0,0.008 0.008,0.015 0.008,0.021 -0.014,1.146 0.275,2.101 0.798,2.901 -1.017,0.459 -1.911,1.233 -2.5,2.280001 h -0.004 c -0.159,0.274 -0.059,0.624 0.223,0.777 0.088,0.051 0.186,0.074 0.279,0.074 0.193,0 0.389,-0.103 0.499,-0.287 0.524,-0.935001 1.351,-1.593001 2.284,-1.929001 0.356,0.336 0.774,0.639 1.234,0.903 1.257,0.754001 1.856,1.975001 1.87,3.883001 v 6.117999 h -2.046 c -0.401,-2.638 -1.724,-4.835999 -3.936,-6.123999 v -0.02 c -1.812,-0.78 -3.111,-2.511 -3.268,-4.563001 -0.917,-0.971 -1.479,-2.276 -1.479,-3.713 0,-1.237 0.417,-2.375 1.112,-3.288 -0.121,-0.45 -0.187,-0.923 -0.187,-1.415 0,-2.445 1.621,-4.513 3.849,-5.187 0.848,-1.892 2.745,-3.213 4.939,-3.213 0.439,0 0.859,0.059 1.266,0.156 0.97,-0.899 2.264,-1.453 3.684,-1.453 1.105,0 2.134,0.331 2.992,0.902 0.761,-0.41 1.627,-0.639 2.551,-0.639 1.865,0 3.511,0.938 4.491,2.369 0.129,-0.007 0.254,-0.018 0.392,-0.018 2.599,0 4.76,1.823 5.296,4.262 1.978,0.844 3.359,2.805 3.359,5.089 -0.002,3.059 -2.477,5.539 -5.537,5.539 z m 4.776,5.760001 c -1.343,0 -2.43,-1.088 -2.43,-2.431 0,-1.343 1.087,-2.430001 2.43,-2.430001 1.343,0 2.431,1.087001 2.431,2.430001 0,1.343 -1.088,2.431 -2.431,2.431 z m 40.625,31.944999 c 0,7.657 -6.23,13.889 -13.889,13.889 h -25 c -4.37,0 -8.255,-2.046 -10.799,-5.211 l 2.7,-1.21 -5.04,-3.642 -5.037,-3.641 -0.634,6.185 -0.635,6.183 3.453,-1.548 c 3.505,5.089 9.356,8.438998 15.991,8.438998 h 25 c 10.722,0 19.444,-8.722998 19.444,-19.443998 h -5.554 z m 0.714,-72.1149978 c -3.505,-5.09 -9.356,-8.43999997 -15.991,-8.43999997 h -25 c -10.722,0 -19.444,8.72299997 -19.444,19.44499777 h 5.556 c 0,-7.658 6.23,-13.8889978 13.889,-13.8889978 h 25 c 4.37,0 8.255,2.044 10.799,5.2109978 l -2.7,1.21 5.04,3.642 5.037,3.641 0.634,-6.185 0.635,-6.1819978 -3.455,1.547 z"
     inkscape:connector-curvature="0" /></svg>